<?xml version="1.0" standalone="no"?>
<!DOCTYPE svg PUBLIC "-//W3C//DTD SVG 20010904//EN"
 "http://www.w3.org/TR/2001/REC-SVG-20010904/DTD/svg10.dtd">
<svg version="1.0" xmlns="http://www.w3.org/2000/svg" viewBox="0 0 3397.000000 2836.000000"
 preserveAspectRatio="xMidYMid meet">

<g transform="translate(0.000000,2836.000000) scale(0.100000,-0.100000)"
fill="#934cff" stroke="none">
<path d="M31 28333 c43 -55 657 -739 954 -1063 1339 -1462 2708 -2841 3985
-4016 2052 -1887 4119 -3506 6215 -4871 303 -197 691 -443 700 -443 3 0 -50
64 -118 143 -623 717 -1165 1533 -1616 2427 -399 790 -724 1625 -1038 2664 -3
11 140 -122 319 -295 2467 -2392 5120 -4401 8076 -6113 1139 -659 2489 -1349
3692 -1886 3951 -1763 8044 -2805 12055 -3069 165 -11 352 -23 415 -26 63 -3
149 -8 190 -10 92 -6 110 -12 -325 120 -1908 581 -3939 1294 -5590 1962 -3767
1524 -6585 3131 -8470 4828 -180 162 -470 441 -445 429 8 -5 85 -54 170 -109
1272 -831 2628 -1476 3845 -1830 708 -206 1496 -349 2080 -377 l59 -3 3176
5775 3175 5775 -5145 3 c-4321 2 -5147 0 -5155 -11 -5 -8 -1196 -2310 -2645
-5116 -2606 -5047 -2635 -5102 -2652 -5079 -10 13 -1450 2314 -3201 5113
l-3184 5090 -4768 3 c-4540 2 -4767 1 -4754 -15z m31429 -28 c0 -2 -295 -541
-656 -1197 -361 -656 -723 -1314 -805 -1463 -81 -148 -197 -360 -258 -470 -61
-110 -528 -959 -1038 -1887 -510 -927 -929 -1685 -930 -1684 -1 1 701 1510
1560 3354 l1562 3352 283 0 c155 0 282 -2 282 -5z m-6015 -13407 c2214 -1038
4885 -2051 7740 -2938 215 -66 395 -123 400 -125 27 -13 -582 28 -1060 71
-2721 243 -5465 840 -8170 1776 -126 44 -232 81 -234 83 -3 3 601 1308 655
1417 l14 27 167 -81 c93 -44 312 -148 488 -230z"/>
<path d="M452 21607 c-12 -14 83 -114 1334 -1387 2067 -2105 3562 -3532 4963
-4739 2567 -2210 4878 -3706 7196 -4655 110 -45 258 -104 328 -131 71 -27 124
-51 118 -53 -13 -4 -346 57 -621 115 -1666 349 -3203 932 -4762 1807 l-67 37
277 -498 c153 -274 1731 -3107 3507 -6295 l3229 -5798 108 198 c60 108 1597
2904 3416 6212 l3308 6015 -45 14 c-193 61 -980 324 -1166 391 -2296 818
-4630 1909 -7220 3373 -165 93 -304 172 -309 175 -11 6 -22 25 139 -233 695
-1111 1410 -2079 2109 -2855 255 -282 723 -745 970 -958 21 -18 37 -35 35 -36
-5 -4 -104 35 -744 289 -3246 1293 -6640 2936 -9625 4663 -2378 1375 -4455
2767 -6196 4154 -144 114 -264 208 -267 208 -2 0 -9 -6 -15 -13z"/>
</g>
</svg>
